<svg width="12" height="11" viewBox="0 0 12 11" fill="none" xmlns="http://www.w3.org/2000/svg">
    <path d="M1.92188 10.0727C1.37264 10.1305 0.880486 9.73219 0.822634 9.18295L0.00558261 1.42586C-0.0522693 0.876612 0.346085 0.38446 0.895331 0.326608L3.50688 0.0515337C4.18447 -0.0198362 4.7624 0.0319098 5.24068 0.206772C5.71799 0.372352 6.08807 0.63369 6.35092 0.990788C6.62207 1.33763 6.78258 1.74774 6.83244 2.22112C6.88426 2.71306 6.82102 3.13735 6.64273 3.49399C6.46444 3.85063 6.20872 4.14034 5.87556 4.36313C5.61054 4.53652 5.32178 4.66243 5.00929 4.74088C4.94843 4.75616 4.9118 4.68234 4.95876 4.64072C4.96881 4.63181 4.98149 4.62637 4.99488 4.62536C5.41512 4.59375 5.8103 4.66926 6.18043 4.85189C6.55563 5.02822 6.8644 5.28663 7.10673 5.62712C7.34907 5.96761 7.49321 6.35598 7.53916 6.79224C7.59195 7.29346 7.51919 7.76099 7.32088 8.19482C7.12159 8.61936 6.79747 8.97259 6.34853 9.2545C5.89959 9.53641 5.33169 9.71354 4.64482 9.78589L1.92188 10.0727ZM2.09321 7.88069C2.15106 8.42993 2.64321 8.82829 3.19246 8.77044L4.3421 8.64935C4.95471 8.58482 5.41343 8.39573 5.71825 8.08207C6.03138 7.75816 6.16056 7.3363 6.10581 6.81651C6.05204 6.306 5.83267 5.91617 5.44769 5.64702C5.07199 5.37689 4.57784 5.27408 3.96523 5.33861L2.84343 5.45677C2.29419 5.51462 1.89583 6.00677 1.95369 6.55602L2.09321 7.88069ZM1.63126 3.49495C1.68912 4.0442 2.18127 4.44255 2.73051 4.3847L3.79662 4.27241C4.38138 4.21081 4.81274 4.0293 5.09069 3.72785C5.36767 3.41713 5.48074 3.02044 5.4299 2.53778C5.38101 2.07368 5.18924 1.72317 4.85459 1.48626C4.51895 1.24006 4.04483 1.14922 3.43222 1.21375L2.40788 1.32164C1.85864 1.37949 1.46028 1.87164 1.51813 2.42089L1.63126 3.49495Z"
          fill="currentColor"/>
    <path d="M9.57 6.90957C9.23047 6.8595 8.97661 6.57177 8.96922 6.22865L8.85718 1.02172C8.84386 0.402805 9.39039 -0.0794006 10.0028 0.010908L11.1356 0.177943C11.7472 0.268125 12.1312 0.886058 11.9414 1.47437L10.3422 6.4296C10.2366 6.75676 9.9101 6.95972 9.57 6.90957ZM9.14256 9.86078C8.87479 9.8213 8.66544 9.70552 8.51451 9.51345C8.37417 9.3135 8.32171 9.0935 8.35711 8.85343C8.39387 8.60412 8.50761 8.40862 8.69832 8.26693C8.89962 8.11736 9.13416 8.06232 9.40193 8.1018C9.66047 8.13993 9.8599 8.25896 10.0002 8.45891C10.1512 8.65098 10.2082 8.87167 10.1715 9.12097C10.1361 9.36104 10.0177 9.55586 9.81643 9.70543C9.62572 9.84712 9.40109 9.89891 9.14256 9.86078Z"
          fill="currentColor"/>
</svg>